<svg width="34" height="34" viewBox="0 0 34 34" fill="none" xmlns="http://www.w3.org/2000/svg">
<path d="M19.0725 15.5306C18.0751 16.2123 16.7527 16.5527 15.1049 16.5527H11.5499V8.53876C12.0124 8.48434 12.5109 8.43034 13.0454 8.37551C13.5804 8.32109 14.1366 8.29368 14.7149 8.29368C18.617 8.29368 20.5681 9.67045 20.5681 12.4232C20.5681 13.8134 20.0696 14.8494 19.0725 15.5306ZM20.8713 19.7829C22.5477 19.102 23.8632 18.1271 24.8173 16.8595C25.7709 15.5916 26.2477 14.0994 26.2477 12.3823C26.2477 9.76537 25.2945 7.71474 23.386 6.22914C21.4787 4.74353 18.617 4.00012 14.8017 4.00012C13.4719 4.00012 12.1786 4.0619 10.9212 4.18464C9.66392 4.30698 8.57277 4.51851 7.64779 4.818C7.12759 4.98166 6.72237 5.20014 6.43386 5.47263C6.14447 5.74512 6 6.14076 6 6.65792V27.1831C6 28.0832 6.2243 28.7235 6.67248 29.1052C7.12022 29.4861 7.89335 29.6772 8.99188 29.6772C9.54071 29.6772 10.054 29.6367 10.5312 29.5545C11.008 29.473 11.3768 29.4047 11.6367 29.3503V20.7231H15.6689L20.5681 27.6331C21.0301 28.2873 21.5008 28.8053 21.9772 29.1866C22.454 29.5684 23.1404 29.759 24.0367 29.759C24.73 29.759 25.3656 29.561 25.9444 29.1662C26.5223 28.7714 26.9271 28.2198 27.1583 27.5104C26.58 26.7203 25.7058 25.6234 24.5357 24.2192C23.3647 22.8154 22.143 21.3364 20.8713 19.7829Z" fill="white"/>
  <style>
    path, circle {
      fill: #000;
    }

    @media (prefers-color-scheme: dark) {
      path, circle {
        fill: #fff;
      }
    }
  </style>
</svg>
